<svg width="159" height="141" viewBox="0 0 159 141" fill="none" xmlns="http://www.w3.org/2000/svg">
<g clip-path="url(#clip0)">
<path d="M131.727 27.7635H26.2725V140.945H131.727V27.7635Z" fill="url(#paint0_linear)"/>
<path d="M25.8365 27.7636C25.9638 27.7636 26.091 27.8181 26.2728 27.8727C26.2728 65.5272 26.2728 103.182 26.2728 140.891C18.1092 141.527 11.2183 139.473 5.74557 134.2C1.87284 130.454 0.000115411 126.055 0.000115411 121.073C0.000115411 103.436 0.000115411 85.8181 0.000115411 68.1818C0.000115411 61.4545 -0.0180664 54.7272 -0.0180664 48C-0.0180664 39.8727 4.36375 33.9636 12.4183 29.9636C16.5638 27.9272 21.1638 27.6181 25.8365 27.7636Z" fill="url(#paint1_linear)"/>
<path d="M113.309 27.7454C118.018 27.7454 118.491 27.7454 123.182 27.7454C123.182 65.5272 123.182 103.182 123.182 140.909C91.1638 140.909 66.9456 140.909 34.8184 140.909C34.8184 103.2 34.8184 65.5454 34.8184 27.7817C39.5093 27.7817 40.5274 27.7817 45.3093 27.7817C45.3093 27.309 45.3093 26.9454 45.3093 26.5999C45.3093 22.5454 45.3275 18.4726 45.2911 14.4181C45.2547 11.5817 46.0184 9.10901 48.2365 7.18174C49.8002 5.83629 51.6002 5.14538 53.6365 5.14538C59.9456 5.1272 66.2365 5.1272 72.5456 5.1272C83.1456 5.1272 93.7638 5.14538 104.364 5.1272C107.146 5.1272 109.455 6.03629 111.273 8.14538C112.727 9.83629 113.273 11.8181 113.273 14.0363C113.255 18.309 113.273 22.5817 113.273 26.8545C113.255 27.0908 113.273 27.3636 113.309 27.7454ZM56.6911 27.7454C57.1274 27.7454 57.4547 27.7454 57.782 27.7454C62.8002 27.7454 67.8365 27.7454 72.8547 27.7454C82.2365 27.7454 91.6365 27.7454 101.018 27.7636C101.764 27.7636 101.927 27.5272 101.927 26.8181C101.891 23.6363 101.927 20.4545 101.927 17.2726C101.927 17.0181 101.891 16.7636 101.855 16.4908C86.7638 16.4908 71.7638 16.4908 56.6911 16.4908C56.6911 20.2363 56.6911 23.909 56.6911 27.7454Z" fill="white"/>
<mask id="mask0" mask-type="alpha" maskUnits="userSpaceOnUse" x="34" y="5" width="90" height="136">
<path d="M113.309 27.7454C118.018 27.7454 118.491 27.7454 123.182 27.7454C123.182 65.5272 123.182 103.182 123.182 140.909C91.1638 140.909 66.9456 140.909 34.8184 140.909C34.8184 103.2 34.8184 65.5454 34.8184 27.7817C39.5093 27.7817 40.5274 27.7817 45.3093 27.7817C45.3093 27.309 45.3093 26.9454 45.3093 26.5999C45.3093 22.5454 45.3275 18.4726 45.2911 14.4181C45.2547 11.5817 46.0184 9.10901 48.2365 7.18174C49.8002 5.83629 51.6002 5.14538 53.6365 5.14538C59.9456 5.1272 66.2365 5.1272 72.5456 5.1272C83.1456 5.1272 93.7638 5.14538 104.364 5.1272C107.146 5.1272 109.455 6.03629 111.273 8.14538C112.727 9.83629 113.273 11.8181 113.273 14.0363C113.255 18.309 113.273 22.5817 113.273 26.8545C113.255 27.0908 113.273 27.3636 113.309 27.7454ZM56.6911 27.7454C57.1274 27.7454 57.4547 27.7454 57.782 27.7454C62.8002 27.7454 67.8365 27.7454 72.8547 27.7454C82.2365 27.7454 91.6365 27.7454 101.018 27.7636C101.764 27.7636 101.927 27.5272 101.927 26.8181C101.891 23.6363 101.927 20.4545 101.927 17.2726C101.927 17.0181 101.891 16.7636 101.855 16.4908C86.7638 16.4908 71.7638 16.4908 56.6911 16.4908C56.6911 20.2363 56.6911 23.909 56.6911 27.7454Z" fill="#F7F9FC"/>
</mask>
<g mask="url(#mask0)">
<path d="M115.123 0H41.6138V27.7818H115.123V0Z" fill="url(#paint2_linear)"/>
</g>
<path d="M158.527 47.7092C158.527 40.2182 154.436 34.6364 147.164 30.5819C142.691 28.091 137.618 27.6182 132.418 27.7273C131.618 27.7455 131.727 28.1637 131.727 28.6001C131.727 41.691 131.727 54.7637 131.727 67.8546C131.727 90.8546 131.727 113.836 131.709 136.836C131.709 138.164 131.709 139.491 131.709 140.927C134.982 141.036 138.091 141.055 141.145 140.327C151.473 137.891 158.509 130.2 158.509 121.127C158.545 96.6728 158.527 72.1819 158.527 47.7092Z" fill="url(#paint3_linear)"/>
<path d="M87.6183 92.7091C87.6183 95.0545 87.6183 97.2727 87.6183 99.5091C87.6183 102.036 87.6183 104.564 87.6183 107.073C87.6183 108.582 86.8546 109.382 85.3637 109.382C81.2546 109.4 77.1455 109.4 73.0364 109.382C71.6728 109.382 70.9092 108.527 70.9092 107.091C70.9092 102.582 70.9092 98.0727 70.9092 93.5636C70.9092 93.3091 70.9092 93.0364 70.9092 92.7091C70.5637 92.7091 70.3092 92.7091 70.0364 92.7091C65.6001 92.7091 61.1455 92.7091 56.7092 92.7091C54.9455 92.7091 54.2183 92 54.2183 90.2364C54.2183 86.3273 54.2183 82.4182 54.2183 78.5091C54.2183 76.7273 54.9273 76.0182 56.691 76.0182C61.1092 76.0182 65.5274 76.0182 69.9455 76.0182C70.2364 76.0182 70.5092 76.0182 70.891 76.0182C70.891 75.7273 70.891 75.4909 70.891 75.2545C70.891 70.7455 70.891 66.2364 70.891 61.7273C70.891 60.0545 71.6364 59.3273 73.3092 59.3273C77.2183 59.3273 81.1274 59.3273 85.0364 59.3273C86.8728 59.3273 87.5819 60.0182 87.5819 61.8909C87.6001 66.3636 87.5819 70.8182 87.5819 75.2909C87.5819 75.5091 87.5819 75.7273 87.5819 76.0364C87.8728 76.0364 88.1273 76.0364 88.3637 76.0364C92.8728 76.0364 97.3819 76.0364 101.891 76.0545C103.546 76.0545 104.255 76.7818 104.255 78.4364C104.255 82.3636 104.255 86.2909 104.255 90.2182C104.255 92.0182 103.564 92.7091 101.8 92.7091C97.3092 92.7091 92.8183 92.7091 88.3455 92.7273C88.1637 92.7091 87.9455 92.7091 87.6183 92.7091Z" fill="url(#paint4_linear)"/>
</g>
<defs>
<linearGradient id="paint0_linear" x1="26.2751" y1="84.3477" x2="131.722" y2="84.3477" gradientUnits="userSpaceOnUse">
<stop stop-color="#B0F4FF"/>
<stop offset="1" stop-color="#69DCFC"/>
</linearGradient>
<linearGradient id="paint1_linear" x1="0.000115412" y1="84.3656" x2="26.2755" y2="84.3656" gradientUnits="userSpaceOnUse">
<stop stop-color="#6CBCFC"/>
<stop offset="1" stop-color="#458DFC"/>
</linearGradient>
<linearGradient id="paint2_linear" x1="41.6062" y1="13.888" x2="115.12" y2="13.888" gradientUnits="userSpaceOnUse">
<stop stop-color="#6CBCFC"/>
<stop offset="1" stop-color="#458DFC"/>
</linearGradient>
<linearGradient id="paint3_linear" x1="131.713" y1="84.3544" x2="158.529" y2="84.3544" gradientUnits="userSpaceOnUse">
<stop stop-color="#6CBCFC"/>
<stop offset="1" stop-color="#458DFC"/>
</linearGradient>
<linearGradient id="paint4_linear" x1="54.2294" y1="84.3727" x2="104.291" y2="84.3727" gradientUnits="userSpaceOnUse">
<stop stop-color="#6CBCFC"/>
<stop offset="1" stop-color="#458DFC"/>
</linearGradient>
<clipPath id="clip0">
<rect width="158.527" height="141" fill="white"/>
</clipPath>
</defs>
</svg>
