<svg width="100" height="141" viewBox="0 0 100 141" fill="none" xmlns="http://www.w3.org/2000/svg">
<g clip-path="url(#clip0)">
<path d="M99.554 134.244C99.554 137.924 96.576 140.914 92.8966 140.914L6.80511 141.012C3.87633 141.012 1.39056 139.13 0.492233 136.508C0.258422 135.832 0.135364 135.118 0.135364 134.367L0 10.2139C0 6.53444 2.97801 3.54413 6.65744 3.54413L85.71 3.45798L92.7489 3.44568C96.4284 3.44568 99.4187 6.42368 99.4187 10.1031L99.554 134.244Z" fill="url(#paint0_linear)"/>
<path d="M90.6323 133.53L9.05708 133.616C7.07584 133.616 5.47609 132.017 5.47609 130.035L5.35303 14.4962C5.35303 12.515 6.95278 10.9152 8.93402 10.9152L90.497 10.8291C92.4782 10.8291 94.0779 12.4289 94.0779 14.4101L94.201 129.949C94.2133 131.918 92.6136 133.53 90.6323 133.53Z" fill="white"/>
<path d="M79.1754 20.3538L19.6768 20.4277C17.7079 20.4277 16.0958 18.8279 16.0958 16.859L16.0835 6.94049C16.0835 4.97156 17.6833 3.3595 19.6522 3.3595L79.1631 3.29797C81.132 3.29797 82.7441 4.89773 82.7441 6.86666L82.7564 16.7851C82.7441 18.7541 81.1443 20.3538 79.1754 20.3538ZM19.6522 5.18076C18.6923 5.18076 17.9048 5.96833 17.9048 6.92819L17.9171 16.8467C17.9171 17.8065 18.7046 18.5941 19.6645 18.5941L79.1754 18.5326C80.1353 18.5326 80.9228 17.745 80.9228 16.7851L80.9105 6.86666C80.9105 5.90681 80.1229 5.11923 79.1631 5.11923L19.6522 5.18076Z" fill="url(#paint1_linear)"/>
<path d="M77.4896 7.59269L21.9288 7.65422C21.3135 7.65422 20.8213 7.16198 20.8213 6.54669V1.16905C20.8213 0.553762 21.3135 0.0615291 21.9288 0.0615291L77.4773 0C78.0926 0 78.5848 0.492232 78.5848 1.10752V6.48516C78.5971 7.10045 78.1049 7.59269 77.4896 7.59269Z" fill="url(#paint2_linear)"/>
<path d="M21.9781 7.65421L77.4404 7.59268C78.0803 7.59268 78.5972 7.07583 78.5972 6.43593V3.80249L20.8091 3.86402V6.49746C20.8091 7.13736 21.3382 7.65421 21.9781 7.65421Z" fill="#58D6F4"/>
<path d="M41.4706 120.535L36.6713 91.4937L32.7827 104.132L21.6582 104.144C20.9814 104.144 20.4399 103.603 20.4399 102.926C20.4399 102.249 20.9814 101.708 21.6582 101.708L30.9983 101.695L37.4097 80.8861L42.2089 110.002L48.4357 90.0047L51.7459 99.4802L59.2033 81.403L66.4514 110.075L69.1833 100.957L77.182 100.945C77.8589 100.945 78.4003 101.486 78.4003 102.163C78.4003 102.84 77.8589 103.381 77.182 103.381L70.9922 103.393L66.2545 119.206L58.6495 89.131L51.549 106.322L48.5587 97.7697L41.4706 120.535Z" fill="#58D6F4"/>
<path d="M33.2256 64.5439L17.5849 64.5562C15.0622 64.5562 12.9948 62.5012 12.9948 59.9785L12.9702 38.111C12.9702 35.5884 15.0253 33.521 17.548 33.521L33.1887 33.5087C35.7114 33.5087 37.7787 35.5637 37.7787 38.0864L37.8034 59.9539C37.8034 62.4766 35.7483 64.5316 33.2256 64.5439ZM17.5357 34.85C15.739 34.85 14.2869 36.3144 14.2869 38.111L14.3115 59.9785C14.3115 61.7751 15.7759 63.2272 17.5726 63.2272L33.2133 63.2149C35.0099 63.2149 36.462 61.7505 36.462 59.9539L36.4374 38.0864C36.4374 36.2898 34.973 34.8377 33.1764 34.8377L17.5357 34.85Z" fill="url(#paint3_linear)"/>
<path d="M25.3869 60.3477C32.7827 60.3354 35.0839 56.0653 35.0839 56.0653C34.7516 55.6469 34.3332 55.2777 33.7671 54.9085C31.8228 53.641 30.26 53.0996 29.6078 52.5581C28.9433 52.0289 28.5741 51.2537 28.5741 51.2537L28.168 51.4998C28.168 51.4998 27.9219 50.6507 28.0572 49.3586C28.0572 49.3586 28.6356 49.2109 29.0663 47.2543C29.7554 47.3897 30.5676 45.6422 30.1861 45.0023C29.94 44.5839 29.6447 44.6208 29.4355 44.7193C29.6447 43.8456 30.5922 39.0094 25.3746 39.0094C20.1569 39.0094 21.1045 43.8456 21.326 44.7193C21.1168 44.6208 20.8214 44.5839 20.5753 45.0023C20.1938 45.6422 21.0183 47.3897 21.7074 47.2543C22.1381 49.2109 22.7288 49.3463 22.7288 49.3463C22.8765 50.6261 22.6181 51.4875 22.6181 51.4875L22.212 51.2414C22.212 51.2414 21.8428 52.0043 21.1783 52.5458C20.5138 53.0872 18.9632 53.641 17.0189 54.9085C16.4529 55.2777 16.0221 55.6469 15.7022 56.0653C15.6899 56.0899 18.0034 60.36 25.3869 60.3477Z" fill="url(#paint4_linear)"/>
<path d="M74.0932 40.4862L43.9809 40.5231C43.4148 40.5231 42.9595 40.0678 42.9595 39.5017V39.3294C42.9595 38.7634 43.4148 38.308 43.9809 38.308L74.0932 38.2711C74.6592 38.2711 75.1146 38.7264 75.1146 39.2925V39.4648C75.1146 40.0308 74.6469 40.4862 74.0932 40.4862Z" fill="url(#paint5_linear)"/>
<path d="M63.0179 46.2207L43.9809 46.2453C43.4148 46.2453 42.9595 45.79 42.9595 45.2239V45.0516C42.9595 44.4855 43.4148 44.0302 43.9809 44.0302L63.0179 44.0056C63.584 44.0056 64.0393 44.4609 64.0393 45.027V45.1993C64.0393 45.7654 63.584 46.2207 63.0179 46.2207Z" fill="url(#paint6_linear)"/>
<path opacity="0.6" d="M84.4792 53.038L43.9931 53.0873C43.427 53.0873 42.9717 52.632 42.9717 52.0659V51.8936C42.9717 51.3275 43.427 50.8722 43.9931 50.8722L84.4792 50.823C85.0453 50.823 85.5006 51.2783 85.5006 51.8444V52.0167C85.4883 52.5827 85.0329 53.038 84.4792 53.038Z" fill="url(#paint7_linear)"/>
<path opacity="0.6" d="M83.6058 72.1982L16.0715 72.272C15.4931 72.272 15.0132 71.8044 15.0132 71.2137V71.1153C15.0132 70.5369 15.4808 70.057 16.0715 70.057L83.6058 69.9832C84.1842 69.9832 84.6641 70.4508 84.6641 71.0415V71.1399C84.6641 71.7306 84.1842 72.1982 83.6058 72.1982Z" fill="url(#paint8_linear)"/>
<path opacity="0.6" d="M84.4792 59.7324L43.9931 59.7816C43.427 59.7816 42.9717 59.3263 42.9717 58.7602V58.5879C42.9717 58.0219 43.427 57.5666 43.9931 57.5666L84.4792 57.5173C85.0453 57.5173 85.5006 57.9727 85.5006 58.5387V58.711C85.5006 59.2771 85.0453 59.7324 84.4792 59.7324Z" fill="url(#paint9_linear)"/>
</g>
<defs>
<linearGradient id="paint0_linear" x1="-13.7864" y1="51.5734" x2="113.34" y2="92.8793" gradientUnits="userSpaceOnUse">
<stop stop-color="#6CBCFC"/>
<stop offset="0.1713" stop-color="#5EABFC"/>
<stop offset="0.4084" stop-color="#509AFC"/>
<stop offset="0.6698" stop-color="#4890FC"/>
<stop offset="1" stop-color="#458DFC"/>
</linearGradient>
<linearGradient id="paint1_linear" x1="-7.75518" y1="-31.725" x2="82.7467" y2="11.8584" gradientUnits="userSpaceOnUse">
<stop stop-color="#CFE9FF"/>
<stop offset="1" stop-color="#A1D6FB"/>
</linearGradient>
<linearGradient id="paint2_linear" x1="20.8072" y1="3.82855" x2="78.5961" y2="3.82855" gradientUnits="userSpaceOnUse">
<stop stop-color="#B0F4FF"/>
<stop offset="1" stop-color="#69DCFC"/>
</linearGradient>
<linearGradient id="paint3_linear" x1="20.9791" y1="43.3501" x2="35.4957" y2="62.0896" gradientUnits="userSpaceOnUse">
<stop stop-color="#6CBCFC"/>
<stop offset="1" stop-color="#458DFC"/>
</linearGradient>
<linearGradient id="paint4_linear" x1="19.4048" y1="44.5698" x2="33.9213" y2="63.3094" gradientUnits="userSpaceOnUse">
<stop stop-color="#B0F4FF"/>
<stop offset="0.0994384" stop-color="#A1EFFE"/>
<stop offset="0.2994" stop-color="#88E7FD"/>
<stop offset="0.5095" stop-color="#77E1FD"/>
<stop offset="0.7344" stop-color="#6CDDFC"/>
<stop offset="1" stop-color="#69DCFC"/>
</linearGradient>
<linearGradient id="paint5_linear" x1="42.9612" y1="39.4072" x2="75.1081" y2="39.4265" gradientUnits="userSpaceOnUse">
<stop stop-color="#6CBCFC"/>
<stop offset="1" stop-color="#458DFC"/>
</linearGradient>
<linearGradient id="paint6_linear" x1="42.9671" y1="45.1255" x2="64.0381" y2="45.1255" gradientUnits="userSpaceOnUse">
<stop stop-color="#6CBCFC"/>
<stop offset="1" stop-color="#458DFC"/>
</linearGradient>
<linearGradient id="paint7_linear" x1="42.974" y1="51.9619" x2="85.4937" y2="51.9619" gradientUnits="userSpaceOnUse">
<stop stop-color="#6CBCFC"/>
<stop offset="1" stop-color="#458DFC"/>
</linearGradient>
<linearGradient id="paint8_linear" x1="15.0126" y1="71.134" x2="84.6607" y2="71.134" gradientUnits="userSpaceOnUse">
<stop stop-color="#6CBCFC"/>
<stop offset="1" stop-color="#458DFC"/>
</linearGradient>
<linearGradient id="paint9_linear" x1="42.9808" y1="58.6547" x2="85.5005" y2="58.6547" gradientUnits="userSpaceOnUse">
<stop stop-color="#6CBCFC"/>
<stop offset="1" stop-color="#458DFC"/>
</linearGradient>
<clipPath id="clip0">
<rect width="99.554" height="141" fill="white"/>
</clipPath>
</defs>
</svg>
