<svg width="143" height="141" viewBox="0 0 143 141" fill="none" xmlns="http://www.w3.org/2000/svg">
<path d="M110.964 15.7302C108.487 13.2866 105.548 11.3497 102.314 10.0303C99.0804 8.71101 95.6152 8.03511 92.117 8.0413C85.2555 8.0413 78.3941 12.8441 73.1589 18.0435L71.2653 19.9382L69.3272 18.0215C64.1143 12.8661 57.2751 8.06333 50.4359 8.06333C45.148 8.06448 39.9791 9.61589 35.5825 12.5215C31.1858 15.4271 27.7589 19.5564 25.7347 24.3876C23.7105 29.2188 23.18 34.5351 24.2102 39.6644C25.2403 44.7937 27.785 49.5059 31.5224 53.2054L71.2876 90.3281L111.075 53.1173C113.552 50.6561 115.514 47.7364 116.849 44.5249C118.184 41.3134 118.865 37.8732 118.855 34.4009C118.845 30.9287 118.142 27.4925 116.788 24.2888C115.434 21.0852 113.455 18.1769 110.964 15.7302ZM84.654 50.6718H75.7431V59.4843H66.8321V50.6718H57.9211V41.8593H66.8321V33.0468H75.7431V41.8593H84.654V50.6718Z" fill="url(#paint0_linear)"/>
<path d="M110.964 15.7302C108.487 13.2866 105.548 11.3497 102.314 10.0303C99.0804 8.71101 95.6152 8.03511 92.117 8.0413C85.2555 8.0413 78.3941 12.8441 73.1589 18.0435L71.2653 19.9382L69.3272 18.0215C64.1143 12.8661 57.2751 8.06333 50.4359 8.06333C45.148 8.06448 39.9791 9.61589 35.5825 12.5215C31.1858 15.4271 27.7589 19.5564 25.7347 24.3876C23.7105 29.2188 23.18 34.5351 24.2102 39.6644C25.2403 44.7937 27.785 49.5059 31.5224 53.2054L71.2876 90.3281L111.075 53.1173C113.552 50.6561 115.514 47.7364 116.849 44.5249C118.184 41.3134 118.865 37.8732 118.855 34.4009C118.845 30.9287 118.142 27.4925 116.788 24.2888C115.434 21.0852 113.455 18.1769 110.964 15.7302ZM84.654 50.6718H75.7431V59.4843H66.8321V50.6718H57.9211V41.8593H66.8321V33.0468H75.7431V41.8593H84.654V50.6718Z" fill="url(#paint1_linear)"/>
<path d="M110.964 15.7302C108.487 13.2866 105.548 11.3497 102.314 10.0303C99.0804 8.71101 95.6152 8.03511 92.117 8.0413C85.2555 8.0413 78.3941 12.8441 73.1589 18.0435L71.2653 19.9382L69.3272 18.0215C64.1143 12.8661 57.2751 8.06333 50.4359 8.06333C45.148 8.06448 39.9791 9.61589 35.5825 12.5215C31.1858 15.4271 27.7589 19.5564 25.7347 24.3876C23.7105 29.2188 23.18 34.5351 24.2102 39.6644C25.2403 44.7937 27.785 49.5059 31.5224 53.2054L71.2876 90.3281L111.075 53.1173C113.552 50.6561 115.514 47.7364 116.849 44.5249C118.184 41.3134 118.865 37.8732 118.855 34.4009C118.845 30.9287 118.142 27.4925 116.788 24.2888C115.434 21.0852 113.455 18.1769 110.964 15.7302ZM84.654 50.6718H75.7431V59.4843H66.8321V50.6718H57.9211V41.8593H66.8321V33.0468H75.7431V41.8593H84.654V50.6718Z" fill="url(#paint2_linear)"/>
<path d="M132.945 57.539C131.737 56.9978 130.423 56.7273 129.098 56.7468C127.772 56.7664 126.467 57.0755 125.276 57.6521C124.085 58.2287 123.037 59.0585 122.208 60.0822C121.379 61.1058 120.79 62.298 120.481 63.5734L115.426 82.1986C113.984 81.2545 112.296 80.7444 110.566 80.7299C108.837 80.7154 107.14 81.1973 105.682 82.1171C105.292 82.3682 84.9641 95.1992 84.9641 95.2014C81.4495 97.3752 78.5536 100.4 76.5504 103.989C74.5471 107.578 73.5026 111.613 73.5157 115.712V136.594H77.9712V115.712C77.9615 112.355 78.8184 109.051 80.4608 106.112C82.1032 103.174 84.4767 100.698 87.3567 98.9203C87.3567 98.9203 107.712 86.0651 108.099 85.8161C108.957 85.2743 109.977 85.0377 110.989 85.1455C112.001 85.2532 112.947 85.6988 113.669 86.4087C114.483 87.214 114.95 88.2998 114.972 89.4383C114.995 90.5768 114.571 91.6798 113.789 92.5158L100.797 101.549C100.313 101.884 99.9836 102.395 99.8808 102.97C99.7781 103.545 99.9104 104.137 100.249 104.615C100.588 105.093 101.106 105.418 101.688 105.519C102.27 105.619 102.869 105.487 103.352 105.151L116.518 96.0011L116.812 95.7544C118.017 94.5761 118.851 93.0784 119.215 91.4418C119.579 89.8052 119.457 88.0995 118.864 86.5299L124.785 64.719C125.058 63.5803 125.755 62.5854 126.738 61.9338C127.721 61.2822 128.916 61.0219 130.085 61.205C131.081 61.4158 131.974 61.9565 132.617 62.7377C133.26 63.519 133.614 64.4939 133.62 65.5011C133.623 65.8885 133.574 66.2746 133.473 66.6489L125.453 96.2942C125.15 97.414 124.553 98.4352 123.725 99.2552L107.043 115.743C104.119 118.635 102.477 122.557 102.476 126.647V136.594H106.932V126.649C106.932 125.202 107.22 123.769 107.78 122.433C108.34 121.096 109.161 119.881 110.196 118.859L126.868 102.368C128.251 101.001 129.245 99.2969 129.751 97.4288L137.771 67.7923C138.047 66.7637 138.135 65.6946 138.031 64.6353C137.874 63.1193 137.322 61.6693 136.431 60.426C135.54 59.1827 134.339 58.1882 132.945 57.539V57.539Z" fill="#458DFC"/>
<path d="M57.6185 95.2101C51.4008 91.2732 36.8804 82.0817 36.3213 81.7821C34.8966 81.0264 33.2916 80.6665 31.6767 80.7406C30.0618 80.8147 28.4974 81.32 27.1496 82.2029L22.0927 63.5733C21.7445 62.1046 21.0227 60.7482 19.9958 59.6329C18.9688 58.5175 17.6707 57.6801 16.2247 57.2001C14.7786 56.7201 13.2325 56.6134 11.7331 56.8902C10.2336 57.1669 8.83054 57.8179 7.65691 58.7815C6.44222 59.7349 5.52413 61.0078 5.00812 62.4541C4.41069 64.1732 4.33787 66.0281 4.79872 67.7878L12.8186 97.4287C13.324 99.2976 14.3183 101.002 15.7013 102.37L32.3759 118.861C34.4661 120.925 35.6416 123.725 35.644 126.647V136.594H40.0995V126.649C40.0994 124.623 39.6958 122.618 38.9118 120.747C38.1278 118.875 36.9788 117.175 35.5304 115.743L18.858 99.2551C18.0291 98.4351 17.4329 97.4139 17.1293 96.2941L9.1094 66.6422C9.01019 66.2691 8.96149 65.8846 8.96459 65.4988C8.97067 64.4911 9.32477 63.5158 9.96818 62.7345C10.6116 61.9531 11.5057 61.4127 12.5022 61.2027C13.6697 61.0245 14.8623 61.2869 15.8433 61.9378C16.8242 62.5888 17.5218 63.5807 17.7976 64.7167L23.7212 86.5276C23.1275 88.0968 23.0053 89.8023 23.3693 91.4385C23.7333 93.0748 24.5681 94.5721 25.7729 95.7499L39.2329 105.142C39.7145 105.476 40.3101 105.608 40.8898 105.509C41.4695 105.411 41.9862 105.089 42.3272 104.615C42.6669 104.137 42.8007 103.545 42.6992 102.97C42.5976 102.394 42.2691 101.882 41.7859 101.546L28.7937 92.5135C28.0116 91.6778 27.5871 90.575 27.6091 89.4365C27.6311 88.2979 28.098 87.212 28.9118 86.4065C29.5866 85.7405 30.4593 85.3055 31.402 85.1652C32.3448 85.0248 33.3083 85.1865 34.1514 85.6265C34.8532 86.0363 47.1325 93.8001 55.2303 98.9268C58.1077 100.705 60.4788 103.18 62.1192 106.117C63.7595 109.054 64.615 112.357 64.6047 115.712V136.594H69.0601V115.712C69.0729 111.615 68.0289 107.582 66.0269 103.994C64.0248 100.407 61.1309 97.3836 57.6185 95.2101V95.2101Z" fill="#458DFC"/>
<defs>
<linearGradient id="paint0_linear" x1="71.2876" y1="90.3281" x2="71.2876" y2="90.3281" gradientUnits="userSpaceOnUse">
<stop stop-color="#6CBCFC"/>
<stop offset="0.0001" stop-color="#458DFC" stop-opacity="0"/>
</linearGradient>
<linearGradient id="paint1_linear" x1="71.2765" y1="8.04126" x2="71.2765" y2="90.328" gradientUnits="userSpaceOnUse">
<stop stop-color="#458DFC"/>
<stop offset="1" stop-color="white" stop-opacity="0"/>
<stop offset="1" stop-color="white" stop-opacity="0"/>
<stop offset="1" stop-color="#458DFC" stop-opacity="0"/>
</linearGradient>
<linearGradient id="paint2_linear" x1="71.2765" y1="8.04126" x2="71.2765" y2="90.328" gradientUnits="userSpaceOnUse">
<stop stop-color="#6CFCFB"/>
<stop offset="1" stop-color="#458DFC" stop-opacity="0"/>
</linearGradient>
</defs>
</svg>
